<svg viewBox="0 0 1200 1200" xmlns="http://www.w3.org/2000/svg"><path fill="#eefeff" d="M0 0h1200v1200H0z"/><rect x="1051" y="925" width="6" height="10" fill="#FCBAD3" rx="0" transform="matrix(-.38721 .91858 -.91624 -.40898 2414.815 231.388)"/><rect x="1137" y="876" width="6" height="13" fill="#FCBAD3" rx="0" transform="matrix(.8766 .56131 -.4317 .86435 378.393 -235.947)"/><rect x="902" y="956" width="7" height="14" fill="#A8D8EA" rx="0" transform="matrix(-.99461 .15665 -.10396 -.98904 1800.03 1821.059)"/><rect x="412" y="494" width="10" height="17" fill="#FFFFD2" rx="0" transform="matrix(.1112 .93172 -1.12995 -.47473 1131.033 480.017)"/><rect x="148" y="859" width="8" height="20" fill="#A8D8EA" rx="0" transform="matrix(.89539 .40829 -.43817 .91704 288.335 23.335)"/><rect x="686" y="275" width="9" height="20" fill="#FFFFD2" rx="0" transform="matrix(.55708 .8888 -.80347 .51315 472.364 -315.554)"/><rect x="127" y="1044" width="10" height="15" fill="#A8D8EA" rx="0" transform="matrix(.45605 .82366 -.89476 .57674 976.407 322.465)"/><rect x="1061" y="811" width="10" height="15" fill="#FCBAD3" rx="0" transform="matrix(1.04849 .59114 -.19427 .84423 318.085 -236.869)"/><rect x="714" y="409" width="11" height="25" fill="#AA96DA" rx="0" transform="matrix(-.42102 .89591 -.90166 -.4565 1367.709 44.923)"/><rect x="907" y="551" width="6" height="9" fill="#AA96DA" rx="0" transform="matrix(.05613 .9854 -1.0247 -.17375 1568.478 -276.479)"/><rect x="143" y="473" width="9" height="25" fill="#AA96DA" rx="0" transform="matrix(.08603 .99269 -.99528 .13951 557.14 281.66)"/><rect x="329" y="1067" width="8" height="8" fill="#AA96DA" rx="0" transform="matrix(.27027 .99817 -1.02073 -.0698 1667.194 824.992)"/><rect x="624" y="648" width="9" height="11" fill="#A8D8EA" rx="0" transform="matrix(-.7894 .55 -.60264 -.84691 1638.593 772.958)"/><rect x="793" y="741" width="9" height="19" fill="#FFFFD2" rx="0" transform="matrix(-.9649 .20842 -.25852 -.98054 1746.955 1375.945)"/><rect x="682" y="250" width="11" height="12" fill="#FFFFD2" rx="0" transform="matrix(.74795 .7771 -.61338 .6997 264.788 -247.191)"/><rect x="357" y="250" width="8" height="23" fill="#FCBAD3" rx="0" transform="matrix(.9915 -.03544 -.17461 1.0148 41.818 -54.733)"/><rect x="49" y="665" width="6" height="14" fill="#AA96DA" rx="0" transform="matrix(.65075 .65646 -.77472 .75517 456.486 128.574)"/><rect x="26" y="144" width="7" height="11" fill="#FCBAD3" rx="0" transform="matrix(.28499 1.00306 -1.01688 -.07014 211.164 133.496)"/><rect x="183" y="1026" width="8" height="15" fill="#A8D8EA" rx="0" transform="matrix(-.40692 .92733 -.91397 -.37466 1189.694 1244.041)"/><rect x="263" y="791" width="9" height="12" fill="#FFFFD2" rx="0" transform="matrix(.79225 .75045 -.6192 .6757 578.213 95.312)"/><rect x="789" y="125" width="9" height="25" fill="#FFFFD2" rx="0" transform="matrix(.5503 .90645 -.8466 .42268 492.826 -653.734)"/><rect x="618" y="412" width="11" height="23" fill="#A8D8EA" rx="0" transform="matrix(.79363 .6757 -.59852 .75045 355.362 -227.99)"/><rect x="40" y="111" width="7" height="8" fill="#AA96DA" rx="0" transform="matrix(-.9206 .47532 -.37242 -.89395 132.04 190.238)"/><rect x="266" y="726" width="11" height="11" fill="#AA96DA" rx="0" transform="matrix(-.20938 .93198 -.98411 -.3956 1075.269 810.852)"/><rect x="983" y="556" width="9" height="18" fill="#A8D8EA" rx="0" transform="matrix(1.07415 .41582 .0077 .93395 101.323 -163.41)"/><rect x="635" y="1080" width="10" height="14" fill="#A8D8EA" rx="0" transform="matrix(.96593 .0885 -.25882 1.01156 303.144 -182.058)"/><rect x="950" y="521" width="10" height="25" fill="#A8D8EA" rx="0" transform="matrix(-.9712 -.01799 -.04325 -1.03046 1769.515 1338.534)"/><rect x="296" y="537" width="10" height="16" fill="#FFFFD2" rx="0" transform="matrix(.3887 .9846 -.88934 .31992 569.6 154.931)"/><rect x="606" y="159" width="9" height="23" fill="#AA96DA" rx="0" transform="matrix(-.79317 .55 -.59684 -.84691 1178.568 64.929)"/><rect x="287" y="167" width="10" height="29" fill="#FFFFD2" rx="0" transform="matrix(-.03439 .99087 -1.00438 -.13926 508.412 -92.756)"/><rect x="844" y="640" width="6" height="12" fill="#FFFFD2" rx="0" transform="matrix(-.1614 .85442 -1.06954 -.5339 1903.922 371.206)"/><rect x="982" y="88" width="7" height="9" fill="#FFFFD2" rx="0" transform="matrix(-.37256 .80463 -.96206 -.60633 1475.463 -523.376)"/><rect x="86" y="192" width="6" height="14" fill="#AA96DA" rx="0" transform="matrix(-.98472 .41301 -.20953 -.92764 211.935 331.149)"/><rect x="647" y="1178" width="9" height="16" fill="#A8D8EA" rx="0" transform="matrix(1.05983 .64587 -.23951 .79759 578.285 -30.316)"/><rect x="839" y="263" width="11" height="28" fill="#A8D8EA" rx="0" transform="matrix(.52657 1.0081 -.88005 .21428 686.242 -423.131)"/><rect x="400" y="505" width="9" height="21" fill="#A8D8EA" rx="0" transform="matrix(-.0535 1.00076 -1.0011 .03495 866.78 113.875)"/><rect x="59" y="595" width="6" height="7" fill="#FFFFD2" rx="0" transform="matrix(-.07035 1.00356 -.98278 -.19507 601.041 666.208)"/><rect x="939" y="928" width="9" height="16" fill="#A8D8EA" rx="0" transform="matrix(-.44391 .78038 -.90894 -.65482 2271.761 996.017)"/><rect x="273" y="1051" width="6" height="11" fill="#A8D8EA" rx="0" transform="matrix(.54162 .96256 -.80899 .40858 861.298 443.545)"/><rect x="139" y="780" width="11" height="28" fill="#AA96DA" rx="0" transform="matrix(-.69782 .4499 -.79197 -.92244 1020.045 1494.764)"/><rect x="929" y="634" width="11" height="20" fill="#FFFFD2" rx="0" transform="matrix(.374 .99513 -.96559 .1046 1393.75 -385.938)"/><rect x="1102" y="1035" width="8" height="17" fill="#AA96DA" rx="0" transform="matrix(-.99508 -.14228 -.05209 -1.0124 2238.592 2492.382)"/><rect x="801" y="1086" width="9" height="10" fill="#A8D8EA" rx="0" transform="matrix(-.15643 1.00413 -.98769 -.05262 2009.076 254.925)"/><rect x="1113" y="679" width="10" height="29" fill="#FCBAD3" rx="0" transform="matrix(.4071 1.05504 -.9763 -.07378 1491.494 -49.918)"/><rect x="798" y="659" width="9" height="13" fill="#AA96DA" rx="0" transform="matrix(.81103 .51574 -.58917 .85834 521.97 -361.67)"/><rect x="178" y="27" width="8" height="22" fill="#AA96DA" rx="0" transform="matrix(1.03543 .3678 -.02153 .95814 4.195 -23.33)"/><rect x="40" y="519" width="7" height="12" fill="#A8D8EA" rx="0" transform="matrix(.98683 -.01767 .0576 1.01231 71.043 -12.584)"/><rect x="470" y="381" width="9" height="16" fill="#AA96DA" rx="0" transform="matrix(.96736 .6297 -.39345 .77762 277.21 -195.719)"/><rect x="388" y="227" width="9" height="15" fill="#A8D8EA" rx="0" transform="matrix(.1128 1.01845 -.97202 .0891 520.108 -102.708)"/><rect x="875" y="31" width="8" height="13" fill="#A8D8EA" rx="0" transform="matrix(.14087 1.00518 -1.03524 -.28823 831.595 -566.51)"/><rect x="1124" y="528" width="8" height="17" fill="#AA96DA" rx="0" transform="matrix(-.99735 -.16195 -.12238 -1.02253 2333.305 1570.017)"/><rect x="905" y="362" width="9" height="14" fill="#AA96DA" rx="0" transform="matrix(-.43395 .86392 -.88635 -.53984 1583.492 -40.747)"/><rect x="193" y="168" width="10" height="21" fill="#FCBAD3" rx="0" transform="matrix(-.0696 1.00536 -.99589 .01755 392.3 -44.503)"/><rect x="640" y="967" width="9" height="25" fill="#FFFFD2" rx="0" transform="matrix(-.87478 .35886 -.50773 -.93486 1906.634 1630.135)"/><rect x="256" y="489" width="10" height="17" fill="#FCBAD3" rx="0" transform="matrix(1.12877 .5308 -.00533 .8834 151.836 -15.461)"/><rect x="211" y="319" width="10" height="12" fill="#A8D8EA" rx="0" transform="matrix(.00729 .99313 -1.00807 -.1573 623.05 138.903)"/><rect x="85" y="437" width="6" height="14" fill="#FFFFD2" rx="0" transform="matrix(.9141 .89658 -.5876 .51764 376.403 158.85)"/><rect x="652" y="1139" width="7" height="13" fill="#FFFFD2" rx="0" transform="matrix(.87246 .82856 -.52527 .64734 756.49 73.828)"/><rect x="830" y="529" width="7" height="20" fill="#A8D8EA" rx="0" transform="matrix(.22801 .9204 -.98496 .4098 1143.812 -551.377)"/><rect x="203" y="245" width="8" height="17" fill="#FCBAD3" rx="0" transform="matrix(-.95124 .05445 -.21638 -1.03887 425.876 564.94)"/><rect x="271" y="599" width="8" height="9" fill="#AA96DA" rx="0" transform="matrix(-.9848 0 -.33448 -1.01543 850.943 1264.8)"/><rect x="1039" y="910" width="9" height="9" fill="#A8D8EA" rx="0" transform="matrix(-.6135 .8121 -.78563 -.59003 2445.288 515.354)"/><rect x="34" y="220" width="10" height="21" fill="#AA96DA" rx="0" transform="matrix(.91495 .29242 -.42712 .95645 65.154 -.685)"/><rect x="502" y="819" width="7" height="9" fill="#A8D8EA" rx="0" transform="matrix(.5101 .84183 -.84383 .56782 1032.704 -158.776)"/><rect x="101" y="236" width="11" height="17" fill="#A8D8EA" rx="0" transform="matrix(.03783 1.01295 -.98457 .07083 374.92 100.523)"/><rect x="1063" y="474" width="10" height="10" fill="#AA96DA" rx="0" transform="matrix(1.0124 .36189 -.12586 .94276 113.16 -208.98)"/><rect x="955" y="1056" width="11" height="26" fill="#FFFFD2" rx="0" transform="matrix(.9809 .59102 -.34188 .81347 611.22 -267.328)"/><rect x="180" y="685" width="7" height="17" fill="#A8D8EA" rx="0" transform="matrix(-.98597 .03533 -.06657 -1.01185 321.871 1417.796)"/><rect x="370" y="1009" width="8" height="9" fill="#A8D8EA" rx="0" transform="matrix(-.24426 .9968 -.98184 -.0872 1337.608 716.022)"/><rect x="673" y="1005" width="6" height="12" fill="#AA96DA" rx="0" transform="matrix(.4118 .96593 -.92493 .25882 1492.853 96.368)"/><rect x="183" y="724" width="6" height="14" fill="#A8D8EA" rx="0" transform="matrix(.9427 .32492 -.17633 1 0 0)"/><rect x="453" y="1111" width="7" height="19" fill="#A8D8EA" rx="0" transform="matrix(.85169 .55 -.50673 .84691 821.752 -143.694)"/><rect x="724" y="823" width="7" height="9" fill="#FFFFD2" rx="0" transform="matrix(.39073 .94783 -.9205 .32636 1204.96 -81.238)"/><rect x="385" y="298" width="9" height="24" fill="#AA96DA" rx="0" transform="matrix(-.69588 .62334 -.71358 -.79783 952.958 252.848)"/><rect x="894" y="675" width="9" height="9" fill="#A8D8EA" rx="0" transform="matrix(.63267 .9141 -.81229 .40698 1033.097 -386.99)"/><rect x="359" y="413" width="8" height="20" fill="#AA96DA" rx="0" transform="matrix(1.0261 .12278 .21256 1 0 0)"/><rect x="725" y="836" width="10" height="12" fill="#FFFFD2" rx="0" transform="matrix(-.91918 .59003 -.42968 -.8121 1681.01 1031.205)"/><rect x="637" y="282" width="11" height="22" fill="#FCBAD3" rx="0" transform="matrix(.6396 1.03777 -.91888 .07257 637.638 -210.793)"/><rect x="958" y="83" width="10" height="20" fill="#A8D8EA" rx="0" transform="matrix(-.6306 .69848 -.77867 -.7233 1646.07 -411.158)"/><rect x="186" y="100" width="7" height="13" fill="#AA96DA" rx="0" transform="matrix(.67703 .70149 -.72446 .7264 145.344 -130.427)"/><rect x="765" y="719" width="9" height="26" fill="#A8D8EA" rx="0" transform="matrix(.1952 1.00046 -.99614 .01746 1498.344 -77.506)"/><rect x="250" y="1045" width="11" height="30" fill="#A8D8EA" rx="0" transform="matrix(-.7529 .45427 -.7237 -.89155 1501.404 1897.9)"/><rect x="720" y="614" width="8" height="14" fill="#AA96DA" rx="0" transform="matrix(.36311 1.00388 -1.07332 -.21338 1399.018 193.851)"/><rect x="950" y="711" width="9" height="15" fill="#FFFFD2" rx="0" transform="matrix(.32061 1.00613 -1.01071 -.05273 1583.034 -86.767)"/><rect x="482" y="661" width="10" height="21" fill="#FCBAD3" rx="0" transform="matrix(-.97434 -.07257 -.15352 -1.03777 1022.087 1543.345)"/><rect x="601" y="412" width="10" height="21" fill="#A8D8EA" rx="0" transform="matrix(.99817 -.0524 .03492 1 0 0)"/><rect x="633" y="690" width="10" height="17" fill="#AA96DA" rx="0" transform="matrix(-.99591 .35859 -.19428 -.93415 1314.063 1099.946)"/><rect x="475" y="48" width="10" height="16" fill="#FFFFD2" rx="0" transform="matrix(.48924 1.00492 -.93503 .12339 325.59 -357.246)"/><rect x="85" y="417" width="8" height="21" fill="#FFFFD2" rx="0" transform="matrix(-.85122 .3908 -.55356 -.92065 484.202 784.742)"/><rect x="116" y="1128" width="10" height="14" fill="#FFFFD2" rx="0" transform="matrix(.15692 .99772 -.99132 .06977 1306.67 937.203)"/><rect x="331" y="258" width="6" height="7" fill="#FFFFD2" rx="0" transform="matrix(.3764 1.02756 -1.0194 -.12617 555.887 40.783)"/><rect x="844" y="479" width="6" height="17" fill="#FFFFD2" rx="0" transform="matrix(-.65162 .57788 -.79985 -.8253 1882.529 504.366)"/><rect x="132" y="431" width="10" height="16" fill="#A8D8EA" rx="0" transform="matrix(.97466 .19154 -.20673 .98538 124.088 -31.807)"/><rect x="212" y="200" width="10" height="18" fill="#FCBAD3" rx="0" transform="matrix(-.78152 .71802 -.6112 -.71802 523.28 164.993)"/><rect x="959" y="154" width="11" height="13" fill="#FFFFD2" rx="0" transform="matrix(-.57315 .79973 -.81852 -.60264 1644.994 -463.57)"/><rect x="1023" y="283" width="8" height="12" fill="#AA96DA" rx="0" transform="matrix(.93598 .35962 -.20912 .98805 16.387 -32.185)"/><rect x="855" y="521" width="10" height="23" fill="#FCBAD3" rx="0" transform="matrix(1.00362 .3102 -.13492 .95469 191.254 -317.882)"/><rect x="113" y="108" width="7" height="10" fill="#AA96DA" rx="0" transform="matrix(-.92846 .42262 -.37512 -.9063 261.132 166.178)"/><rect x="589" y="36" width="9" height="21" fill="#FCBAD3" rx="0" transform="matrix(.99321 -.03492 .19438 1 0 0)"/><rect x="211" y="958" width="6" height="16" fill="#FFFFD2" rx="0" transform="matrix(-1.01006 .37829 -.14351 -.9363 470.416 1759.432)"/><rect x="704" y="937" width="8" height="14" fill="#AA96DA" rx="0" transform="matrix(1.03445 .29525 -.00348 .9657 144.17 -77.154)"/><rect x="135" y="13" width="10" height="24" fill="#AA96DA" rx="0" transform="matrix(.08436 .96823 -1.0586 -.29602 165.546 -80.977)"/><rect x="689" y="951" width="9" height="21" fill="#FFFFD2" rx="0" transform="matrix(-.7224 .46976 -.7701 -.88349 2236.312 1509.412)"/><rect x="477" y="947" width="9" height="25" fill="#AA96DA" rx="0" transform="matrix(-.87791 .39804 -.44405 -.93773 1200.98 1761.191)"/><rect x="1008" y="1010" width="9" height="24" fill="#A8D8EA" rx="0" transform="matrix(-.86544 .47532 -.47618 -.89395 2209.24 1614.72)"/><rect x="705" y="1095" width="6" height="10" fill="#A8D8EA" rx="0" transform="matrix(-.29264 .7756 -1.04378 -.6508 2410.923 1378.896)"/><rect x="831" y="1030" width="6" height="12" fill="#FCBAD3" rx="0" transform="matrix(.9365 .54154 -.28797 .90128 259.906 -78.389)"/><rect x="760" y="742" width="10" height="17" fill="#A8D8EA" rx="0" transform="matrix(-.90497 .24565 -.44114 -.98526 1819.296 1436.906)"/><rect x="743" y="688" width="10" height="16" fill="#A8D8EA" rx="0" transform="matrix(.89224 .37552 -.4546 .92945 385.767 -284.091)"/><rect x="849" y="241" width="6" height="6" fill="#A8D8EA" rx="0" transform="matrix(.57272 1.01 -.95005 .07063 726.335 -498.808)"/><rect x="1141" y="382" width="9" height="23" fill="#AA96DA" rx="0" transform="matrix(1.04703 .42767 .01341 .96056 34.861 -102.178)"/><rect x="904" y="21" width="6" height="8" fill="#FCBAD3" rx="0" transform="matrix(.62267 .8656 -.78114 .5201 334.314 -900.564)"/><rect x="987" y="742" width="6" height="8" fill="#AA96DA" rx="0" transform="matrix(.17497 1.00736 -.99575 -.01758 1620.276 -116.609)"/><rect x="341" y="1108" width="7" height="7" fill="#FCBAD3" rx="0" transform="matrix(-.42352 .86655 -.90948 -.5003 1636.285 1357.03)"/><rect x="892" y="1023" width="11" height="32" fill="#FCBAD3" rx="0" transform="matrix(-.94437 .20804 -.3639 -.97874 2319.029 1837.859)"/><rect x="226" y="565" width="10" height="17" fill="#FFFFD2" rx="0" transform="matrix(-.95557 .20804 -.3112 -.97874 709.677 1078.686)"/><rect x="538" y="589" width="8" height="8" fill="#FCBAD3" rx="0" transform="matrix(.17572 1.0275 -1.00107 -.16274 1079.621 288.02)"/><rect x="510" y="462" width="7" height="18" fill="#FCBAD3" rx="0" transform="matrix(.48695 1.03275 -1.00234 -.07222 910.064 112.287)"/><rect x="705" y="638" width="8" height="19" fill="#FCBAD3" rx="0" transform="matrix(.62394 1.0094 -.83512 .25167 911.836 -27.818)"/><rect x="925" y="524" width="7" height="15" fill="#FFFFD2" rx="0" transform="matrix(1.02999 .27564 -.03597 .96126 123.793 -235.34)"/><rect x="553" y="94" width="11" height="31" fill="#FFFFD2" rx="0" transform="matrix(.94482 .54472 -.3809 .8388 93.728 -296.324)"/><rect x="368" y="891" width="8" height="21" fill="#FCBAD3" rx="0" transform="matrix(-1.00788 -.08801 -.15807 -1.00598 989.677 1893.417)"/><rect x="108" y="157" width="9" height="18" fill="#AA96DA" rx="0" transform="matrix(-.93415 .25882 -.37742 -.96593 300.625 297.227)"/><rect x="658" y="1065" width="10" height="24" fill="#A8D8EA" rx="0" transform="matrix(.10787 .94798 -1.01346 .3639 1598.985 -60.333)"/><rect x="573" y="68" width="7" height="15" fill="#FCBAD3" rx="0" transform="matrix(.3572 .9323 -.9283 .37667 441.964 -550.997)"/><rect x="164" y="387" width="7" height="8" fill="#A8D8EA" rx="0" transform="matrix(1.01376 .15665 .01691 .98904 40.17 -13.177)"/><rect x="1034" y="515" width="8" height="21" fill="#FCBAD3" rx="0" transform="matrix(.92591 .98737 -.65736 .37902 675.518 -341.156)"/><rect x="74" y="1146" width="8" height="15" fill="#FCBAD3" rx="0" transform="matrix(.94552 .63279 -.32557 .83974 379.792 160.852)"/><rect x="155" y="550" width="7" height="13" fill="#FFFFD2" rx="0" transform="matrix(-.59702 .90755 -.82347 -.4232 634.346 639.856)"/><rect x="771" y="73" width="10" height="21" fill="#AA96DA" rx="0" transform="matrix(.9899 .87036 -.5304 .54386 137.465 -458.154)"/><rect x="311" y="49" width="9" height="10" fill="#A8D8EA" rx="0" transform="matrix(.99733 .40451 -.12254 .95298 9.878 -40.547)"/><rect x="540" y="924" width="6" height="15" fill="#FFFFD2" rx="0" transform="matrix(-.92956 .32877 -.34204 -.95481 1501.804 1566.072)"/><rect x="583" y="588" width="7" height="19" fill="#FFFFD2" rx="0" transform="matrix(-.99255 -.18158 -.12187 -1.0298 1241.445 1498.618)"/><rect x="798" y="681" width="9" height="13" fill="#FFFFD2" rx="0" transform="matrix(.96212 .57921 -.35242 .8272 370.948 -233.236)"/><rect x="96" y="649" width="7" height="14" fill="#FCBAD3" rx="0" transform="matrix(-.91922 .09067 -.5225 -1.03634 642.147 1355.35)"/><rect x="128" y="101" width="8" height="14" fill="#AA96DA" rx="0" transform="matrix(.89453 .71293 -.47635 .73826 72.625 -35.364)"/><rect x="629" y="736" width="6" height="9" fill="#FFFFD2" rx="0" transform="matrix(.78812 .44384 -.63721 .91 560.983 -313.956)"/><rect x="521" y="265" width="8" height="11" fill="#FCBAD3" rx="0" transform="matrix(-1.0081 .22716 -.03559 -.98395 1053.57 343.613)"/><rect x="1083" y="1023" width="10" height="23" fill="#A8D8EA" rx="0" transform="matrix(-.86224 .32877 -.53753 -.95481 2686.075 1817.46)"/><rect x="140" y="107" width="6" height="12" fill="#FCBAD3" rx="0" transform="matrix(.6752 .89114 -.77812 .45406 161.037 -63.246)"/><rect x="224" y="1180" width="9" height="24" fill="#AA96DA" rx="0" transform="matrix(-.9538 .19154 -.31398 -.98538 1069.824 2302.812)"/><rect x="260" y="888" width="6" height="7" fill="#FFFFD2" rx="0" transform="matrix(-.83526 .30742 -.52088 -1.00552 895.838 1792.523)"/><rect x="655" y="40" width="10" height="10" fill="#FCBAD3" rx="0" transform="matrix(.8787 .36284 -.467 .94522 98.996 -341.54)"/><rect x="130" y="711" width="7" height="8" fill="#A8D8EA" rx="0" transform="matrix(-.7125 .53984 -.71217 -.86392 763.693 1286.585)"/><rect x="44" y="159" width="6" height="16" fill="#AA96DA" rx="0" transform="matrix(.70603 .87682 -.73286 .50623 151.465 48.693)"/><rect x="295" y="406" width="6" height="7" fill="#FCBAD3" rx="0" transform="matrix(-.66993 .77726 -.74406 -.62942 788.215 430.42)"/><rect x="973" y="365" width="7" height="20" fill="#FCBAD3" rx="0" transform="matrix(-.49158 .74496 -.89973 -.67076 1887.703 -169.2)"/><rect x="157" y="349" width="10" height="20" fill="#FFFFD2" rx="0" transform="matrix(.98638 .29255 -.1919 .95689 96.6 -26.259)"/><rect x="877" y="543" width="7" height="14" fill="#FCBAD3" rx="0" transform="matrix(-.81206 .30415 -.63168 -.99484 2013.15 1081.835)"/><rect x="465" y="598" width="8" height="9" fill="#FCBAD3" rx="0" transform="matrix(1.00185 .03492 .05303 1 39.149 -32.756)"/><rect x="256" y="567" width="11" height="12" fill="#FFFFD2" rx="0" transform="matrix(-.96487 .56056 -.35346 -.83106 618.535 884.327)"/><rect x="724" y="930" width="8" height="20" fill="#A8D8EA" rx="0" transform="matrix(-.41986 .78813 -.9408 -.61576 2137.955 957.758)"/><rect x="296" y="945" width="9" height="25" fill="#A8D8EA" rx="0" transform="matrix(1.00399 -.05254 -.1226 1.00244 34.723 -12.844)"/><rect x="129" y="1069" width="11" height="31" fill="#A8D8EA" rx="0" transform="matrix(.20825 .99087 -.97994 .13926 1207.276 804.9)"/><rect x="95" y="259" width="11" height="13" fill="#FCBAD3" rx="0" transform="matrix(.03067 .96322 -1.04875 -.33166 426.12 276.288)"/><rect x="580" y="168" width="11" height="20" fill="#AA96DA" rx="0" transform="matrix(1.03061 .12278 .24933 1 0 0)"/><rect x="822" y="1138" width="10" height="16" fill="#AA96DA" rx="0" transform="matrix(.15985 .93984 -1.00584 .34207 1647.966 -37.694)"/><rect x="566" y="698" width="8" height="22" fill="#FFFFD2" rx="0" transform="matrix(-.57485 .8573 -.82105 -.51512 1443.154 575.608)"/><rect x="589" y="364" width="11" height="19" fill="#FFFFD2" rx="0" transform="matrix(1.00616 .59114 -.25471 .84423 155.53 -145.024)"/><rect x="289" y="102" width="9" height="22" fill="#FFFFD2" rx="0" transform="matrix(-.26513 .86435 -.98477 -.56131 495.613 -4.08)"/><rect x="336" y="599" width="8" height="17" fill="#AA96DA" rx="0" transform="matrix(.94139 .74873 -.48797 .67416 478.247 -14.87)"/><rect x="634" y="414" width="8" height="17" fill="#AA96DA" rx="0" transform="matrix(-.99345 -.01772 -.48632 -1.01527 1651.118 975.255)"/><rect x="353" y="304" width="9" height="12" fill="#FFFFD2" rx="0" transform="matrix(.99993 .17495 -.04499 .9922 80.32 -104.024)"/><rect x="807" y="181" width="11" height="27" fill="#AA96DA" rx="0" transform="matrix(-1.00305 .2443 -.07031 -.97983 1638.352 72.395)"/><rect x="1054" y="598" width="9" height="21" fill="#FFFFD2" rx="0" transform="matrix(-.84255 .35765 -.48116 -.98263 2128.677 1151.476)"/><rect x="153" y="511" width="8" height="17" fill="#A8D8EA" rx="0" transform="matrix(.71605 .83974 -.65127 .63279 312.867 109.942)"/><rect x="300" y="193" width="9" height="18" fill="#AA96DA" rx="0" transform="matrix(-.61027 .67282 -.80852 -.74724 674.12 180.074)"/><rect x="358" y="120" width="7" height="13" fill="#AA96DA" rx="0" transform="matrix(1.00413 .0349 .10528 .99954 1.495 -6.25)"/><rect x="676" y="692" width="6" height="16" fill="#FCBAD3" rx="0" transform="matrix(-.65655 .7885 -.7553 -.61604 1641.697 572.13)"/><rect x="869" y="215" width="11" height="32" fill="#FCBAD3" rx="0" transform="matrix(-.62464 .5634 -.8489 -.83526 1694.963 38.634)"/><rect x="846" y="1059" width="9" height="10" fill="#FFFFD2" rx="0" transform="matrix(-.17187 .94199 -.99903 -.34286 2310.101 568.165)"/><rect x="410" y="221" width="9" height="17" fill="#FCBAD3" rx="0" transform="matrix(-.81928 .5592 -.57366 -.82904 889.752 187.979)"/><rect x="548" y="604" width="9" height="20" fill="#AA96DA" rx="0" transform="matrix(-.87924 .37829 -.4673 -.9363 1301.05 1057.53)"/><rect x="24" y="652" width="11" height="29" fill="#A8D8EA" rx="0" transform="matrix(-.85071 .60218 -.5317 -.79912 374.096 1180.32)"/><rect x="544" y="151" width="8" height="11" fill="#A8D8EA" rx="0" transform="matrix(.26136 .99513 -.97743 .1046 579.308 -386.062)"/><rect x="531" y="457" width="7" height="18" fill="#AA96DA" rx="0" transform="matrix(.54178 .867 -.81487 .54176 522.443 -136.256)"/><rect x="964" y="903" width="11" height="18" fill="#FFFFD2" rx="0" transform="matrix(.31687 1.0032 -.98574 .03503 1755.045 -7.74)"/><rect x="1172" y="189" width="9" height="18" fill="#AA96DA" rx="0" transform="matrix(-.98245 .3908 -.2444 -.92065 2342.213 -58.942)"/><rect x="805" y="1085" width="11" height="16" fill="#A8D8EA" rx="0" transform="matrix(-.65823 .69508 -.75706 -.71978 2230.23 1344.657)"/><rect x="522" y="786" width="7" height="20" fill="#A8D8EA" rx="0" transform="matrix(.78144 .70754 -.63192 .70754 727.152 -157.362)"/><rect x="632" y="1174" width="6" height="14" fill="#A8D8EA" rx="0" transform="matrix(.63893 .59102 -.81257 .81347 992.447 -221.753)"/><rect x="959" y="824" width="7" height="9" fill="#FCBAD3" rx="0" transform="matrix(.48381 .92742 -.8729 .39367 1203.502 -272.111)"/><rect x="43" y="341" width="10" height="15" fill="#FCBAD3" rx="0" transform="matrix(-.9063 .14553 -.42262 -1.03552 238.785 717.067)"/><rect x="889" y="807" width="6" height="11" fill="#AA96DA" rx="0" transform="matrix(-.88395 .6165 -.49064 -.7891 1998.644 856.966)"/><rect x="931" y="515" width="11" height="31" fill="#A8D8EA" rx="0" transform="matrix(1.05964 .81977 -.39197 .64047 396.374 -308.445)"/><rect x="364" y="1061" width="11" height="22" fill="#FCBAD3" rx="0" transform="matrix(-.30714 .97758 -.94635 -.24374 1551.282 926.702)"/><rect x="971" y="1173" width="11" height="27" fill="#FCBAD3" rx="0" transform="matrix(-.7876 .60218 -.61546 -.79912 2536.219 1512.528)"/><rect x="1039" y="963" width="7" height="17" fill="#FFFFD2" rx="0" transform="matrix(.97705 .24494 -.16393 .9824 369.347 -403.356)"/><rect x="39" y="657" width="11" height="13" fill="#A8D8EA" rx="0" transform="matrix(.7635 .80648 -.66461 .60773 498.327 230.637)"/><rect x="1010" y="1107" width="11" height="27" fill="#FCBAD3" rx="0" transform="matrix(-.45399 .85926 -.891 -.5163 2474.9 897.441)"/><rect x="806" y="972" width="8" height="15" fill="#FFFFD2" rx="0" transform="matrix(.70823 .8868 -.6851 .55413 843.074 -33.936)"/><rect x="302" y="745" width="8" height="17" fill="#FCBAD3" rx="0" transform="matrix(-.5869 .7264 -.7689 -.7522 945.914 1191.564)"/><rect x="1169" y="1066" width="11" height="14" fill="#A8D8EA" rx="0" transform="matrix(-.25852 .97125 -.96034 -.26024 2382.816 334.959)"/><rect x="1096" y="514" width="11" height="25" fill="#FFFFD2" rx="0" transform="matrix(.66542 1.01073 -.79858 .28982 881.939 -381.512)"/><rect x="738" y="219" width="10" height="14" fill="#FCBAD3" rx="0" transform="matrix(.50767 .94682 -.88137 .32601 602.222 -512.225)"/><rect x="385" y="908" width="7" height="11" fill="#A8D8EA" rx="0" transform="matrix(-.69084 .82916 -.74005 -.55928 1170.662 1109.052)"/><rect x="772" y="447" width="6" height="15" fill="#FCBAD3" rx="0" transform="matrix(-.9971 .26136 -.10484 -.97542 1589.378 586.353)"/><rect x="799" y="865" width="9" height="10" fill="#A8D8EA" rx="0" transform="matrix(.49557 1.01732 -.957 .05332 1493.76 162.383)"/><rect x="111" y="266" width="8" height="14" fill="#A8D8EA" rx="0" transform="matrix(-.05119 .95689 -1.0294 -.29255 479.044 238.808)"/><rect x="296" y="347" width="8" height="22" fill="#FFFFD2" rx="0" transform="matrix(.6365 .89976 -.7871 .45845 418.814 -33.892)"/><rect x="985" y="270" width="9" height="23" fill="#FFFFD2" rx="0" transform="matrix(.99863 0 .2348 1.00137 1.108 -52.244)"/><rect x="127" y="123" width="8" height="8" fill="#FCBAD3" rx="0" transform="matrix(.65363 .55304 -.80168 .8516 132.586 -76.701)"/><rect x="361" y="1035" width="9" height="19" fill="#A8D8EA" rx="0" transform="matrix(-.61294 .56952 -.812 -.877 1498.266 1864.1)"/><rect x="1104" y="753" width="10" height="16" fill="#FCBAD3" rx="0" transform="matrix(-.7124 .47126 -.78213 -.88632 2724.153 1009.882)"/><rect x="547" y="1047" width="9" height="25" fill="#FFFFD2" rx="0" transform="matrix(.17586 1.00598 -1.00944 -.08801 1663.62 675.457)"/><rect x="676" y="818" width="8" height="10" fill="#FCBAD3" rx="0" transform="matrix(-.40998 .69273 -.98822 -.76936 1967.486 1167.33)"/><rect x="767" y="299" width="8" height="22" fill="#A8D8EA" rx="0" transform="matrix(.60182 .74598 -.79864 .67169 554.578 -540.83)"/><rect x="827" y="371" width="10" height="21" fill="#A8D8EA" rx="0" transform="matrix(-.56043 .86616 -.83096 -.50008 1596.058 -162.886)"/><rect x="935" y="371" width="9" height="18" fill="#FCBAD3" rx="0" transform="matrix(.49926 .82115 -.86821 .57498 729.772 -544.268)"/><rect x="546" y="538" width="7" height="14" fill="#AA96DA" rx="0" transform="matrix(-1.02349 .49229 -.1849 -.88811 1141.707 661.617)"/><rect x="888" y="470" width="9" height="22" fill="#FCBAD3" rx="0" transform="matrix(.75006 .84072 -.70237 .54597 656.73 -469.543)"/><rect x="1137" y="424" width="9" height="20" fill="#FCBAD3" rx="0" transform="matrix(-.7224 .6165 -.69741 -.7891 2294.677 132.547)"/><rect x="642" y="692" width="11" height="28" fill="#FFFFD2" rx="0" transform="matrix(-.81854 .54539 -.57313 -.83982 1569.214 979.71)"/><rect x="31" y="349" width="9" height="17" fill="#AA96DA" rx="0" transform="matrix(.15764 .96258 -.99367 .27602 360.272 222.792)"/><rect x="325" y="891" width="7" height="13" fill="#FCBAD3" rx="0" transform="matrix(-.97148 .19084 -.2422 -.98178 896.545 1721.688)"/><rect x="389" y="627" width="6" height="10" fill="#AA96DA" rx="0" transform="matrix(1.01553 .4073 -.1743 .9148 291.016 -126.356)"/><rect x="260" y="232" width="7" height="19" fill="#FFFFD2" rx="0" transform="matrix(-.9994 -.27064 -.0349 -1.01006 535.268 637.305)"/><rect x="286" y="1116" width="6" height="9" fill="#AA96DA" rx="0" transform="matrix(-1.04025 -.1409 -.30495 -1.00261 1265.75 2330.422)"/><rect x="1003" y="342" width="10" height="13" fill="#AA96DA" rx="0" transform="matrix(.20791 1.04171 -.97815 -.09114 1139.31 -361.608)"/><rect x="657" y="1183" width="7" height="11" fill="#FCBAD3" rx="0" transform="matrix(.81694 .69848 -.5857 .7233 1096.04 -201.915)"/><rect x="109" y="818" width="11" height="14" fill="#A8D8EA" rx="0" transform="matrix(-.57553 .76616 -.82228 -.64289 945.28 1265.657)"/><rect x="704" y="819" width="10" height="22" fill="#AA96DA" rx="0" transform="matrix(-1.00428 .13994 -.00013 -.99572 1394.757 1482.714)"/><rect x="58" y="221" width="8" height="11" fill="#FFFFD2" rx="0" transform="matrix(.94937 .21112 -.27021 .99324 87 -22.49)"/><rect x="1009" y="253" width="9" height="14" fill="#AA96DA" rx="0" transform="matrix(-.37419 .94783 -.9262 -.32636 1636.852 -686.64)"/><rect x="958" y="964" width="6" height="6" fill="#FCBAD3" rx="0" transform="matrix(.3307 1.05082 -.96318 -.0367 1641.631 304.893)"/><rect x="815" y="646" width="10" height="18" fill="#A8D8EA" rx="0" transform="matrix(.78938 .88222 -.64024 .55127 638.715 -194.377)"/><rect x="452" y="992" width="6" height="13" fill="#FFFFD2" rx="0" transform="matrix(.37337 .8977 -.92372 .4574 1240.37 77.467)"/><rect x="699" y="1051" width="11" height="15" fill="#AA96DA" rx="0" transform="matrix(-.21735 .9657 -.96906 -.29525 2087.324 591.668)"/><rect x="718" y="947" width="10" height="10" fill="#FCBAD3" rx="0" transform="matrix(.94537 .70149 -.44659 .7264 669.447 -145.104)"/><rect x="975" y="763" width="11" height="27" fill="#FFFFD2" rx="0" transform="matrix(-.92052 .14178 -.50345 -1.0088 2444.52 1611.412)"/><rect x="360" y="336" width="6" height="7" fill="#A8D8EA" rx="0" transform="matrix(-.54656 .88308 -.84179 -.46954 823.89 172.015)"/><rect x="463" y="633" width="11" height="28" fill="#A8D8EA" rx="0" transform="matrix(.74971 .82028 -.69415 .57436 733.158 -133.466)"/><rect x="206" y="815" width="9" height="21" fill="#FFFFD2" rx="0" transform="matrix(.9821 .1573 -.15672 .99313 44.05 -5.314)"/><rect x="1064" y="847" width="6" height="8" fill="#AA96DA" rx="0" transform="matrix(-.9747 .12194 -.26228 -.99315 2473.677 1528.797)"/><rect x="1073" y="1182" width="6" height="6" fill="#A8D8EA" rx="0" transform="matrix(-.0916 .94913 -1.02206 -.32681 2588.29 645.146)"/><rect x="166" y="812" width="10" height="25" fill="#FFFFD2" rx="0" transform="matrix(.94069 .4073 -.3424 .9148 306.999 9.562)"/><rect x="627" y="115" width="11" height="25" fill="#FCBAD3" rx="0" transform="matrix(.96532 .39288 -.27112 .92558 70.589 -305.488)"/><rect x="1033" y="965" width="9" height="21" fill="#FFFFD2" rx="0" transform="matrix(.92573 .77026 -.52148 .64633 876.356 -345.097)"/><rect x="173" y="480" width="11" height="25" fill="#AA96DA" rx="0" transform="matrix(1.03657 .45427 -.16697 .89155 218.715 -21.442)"/><rect x="651" y="268" width="11" height="15" fill="#AA96DA" rx="0" transform="matrix(.88401 .51512 -.47006 .8573 215.668 -287.4)"/><rect x="660" y="996" width="8" height="10" fill="#A8D8EA" rx="0" transform="matrix(.37 1.00388 -.9175 .21338 1276.23 274.128)"/><rect x="420" y="930" width="9" height="21" fill="#AA96DA" rx="0" transform="matrix(-.10479 1.01 -.99743 .07063 1391.819 378.098)"/><rect x="803" y="1003" width="10" height="13" fill="#FFFFD2" rx="0" transform="matrix(.60294 .65766 -.82693 .75655 1004.67 -342.13)"/><rect x="1098" y="990" width="7" height="11" fill="#FFFFD2" rx="0" transform="matrix(-.7545 .39288 -.76779 -.92558 3036.667 1599.921)"/><rect x="533" y="875" width="7" height="13" fill="#A8D8EA" rx="0" transform="matrix(.2073 .96349 -.97452 .29457 1312.81 39.054)"/><rect x="924" y="993" width="6" height="14" fill="#FCBAD3" rx="0" transform="matrix(.52452 .73538 -.87071 .68575 1216.614 -464.886)"/><rect x="272" y="155" width="11" height="20" fill="#AA96DA" rx="0" transform="matrix(.06982 .99924 -.9971 .05237 430.786 -130.62)"/><rect x="512" y="411" width="8" height="21" fill="#AA96DA" rx="0" transform="matrix(.97859 -.07063 .16467 1.01 26.358 -49.498)"/><rect x="465" y="823" width="10" height="27" fill="#FFFFD2" rx="0" transform="matrix(.9609 .53857 -.25757 .89633 216.725 -22.717)"/><rect x="26" y="727" width="8" height="21" fill="#AA96DA" rx="0" transform="matrix(.42352 .86655 -.90948 .5003 597.352 343.576)"/></svg>